<svg width="36" height="36" viewBox="0 0 36 36" fill="none" xmlns="http://www.w3.org/2000/svg">
<path d="M32.7863 1.93359H3.21488C2.50372 1.93359 1.92917 2.50815 1.92917 3.21931V32.7907C1.92917 33.5019 2.50372 34.0765 3.21488 34.0765H32.7863C33.4975 34.0765 34.072 33.5019 34.072 32.7907V3.21931C34.072 2.50815 33.4975 1.93359 32.7863 1.93359ZM31.1792 31.1836H4.82203V4.82645H31.1792V31.1836ZM11.0899 24.8756V27.9693C11.0899 28.1461 11.2345 28.2907 11.4113 28.2907H13.3399C13.5167 28.2907 13.6613 28.1461 13.6613 27.9693V24.8756C13.2555 25.0082 12.8256 25.0765 12.3756 25.0765C11.9256 25.0765 11.4957 25.0041 11.0899 24.8756ZM13.6613 16.9202V8.04074C13.6613 7.86395 13.5167 7.71931 13.3399 7.71931H11.4113C11.2345 7.71931 11.0899 7.86395 11.0899 8.04074V16.9202C11.4957 16.7876 11.9256 16.7193 12.3756 16.7193C12.8256 16.7193 13.2555 16.7916 13.6613 16.9202ZM11.0899 24.8756C11.4957 25.0082 11.9256 25.0765 12.3756 25.0765C12.8256 25.0765 13.2555 25.0041 13.6613 24.8756C15.3408 24.3331 16.5542 22.7581 16.5542 20.8979C16.5542 19.0376 15.3408 17.4626 13.6613 16.9202C13.2555 16.7876 12.8256 16.7193 12.3756 16.7193C11.9256 16.7193 11.4957 16.7916 11.0899 16.9202C9.41042 17.4626 8.19703 19.0376 8.19703 20.8979C8.19703 22.7581 9.41042 24.3331 11.0899 24.8756ZM11.0939 20.2269C11.106 20.2028 11.122 20.1787 11.1341 20.1546V20.1506L11.1823 20.0782C11.1863 20.0702 11.1903 20.0662 11.1943 20.0581C11.2064 20.0381 11.2225 20.022 11.2345 20.0019C11.2385 19.9979 11.2426 19.9898 11.2466 19.9858C11.2667 19.9617 11.2827 19.9416 11.3028 19.9215L11.3149 19.9095L11.3631 19.8613L11.3792 19.8452C11.3993 19.8251 11.4193 19.809 11.4435 19.789C11.4676 19.7689 11.4877 19.7528 11.5118 19.7367C11.5198 19.7327 11.5238 19.7287 11.5318 19.7247C11.5519 19.7126 11.568 19.6965 11.5881 19.6845C11.5921 19.6805 11.6002 19.6765 11.6042 19.6724C11.6283 19.6564 11.6524 19.6443 11.6805 19.6282C11.6845 19.6242 11.6926 19.6242 11.6966 19.6202C11.7167 19.6081 11.7368 19.6001 11.7609 19.5881L11.785 19.576C11.8131 19.564 11.8372 19.5519 11.8653 19.5439C11.8935 19.5318 11.9216 19.5238 11.9497 19.5157C11.9577 19.5117 11.9658 19.5117 11.9738 19.5077C11.9979 19.4997 12.018 19.4956 12.0421 19.4916C12.0502 19.4916 12.0542 19.4876 12.0622 19.4876C12.0903 19.4796 12.1225 19.4756 12.1506 19.4715C12.1586 19.4715 12.1627 19.4715 12.1707 19.4675C12.1948 19.4635 12.2189 19.4635 12.243 19.4595H12.2671C12.2993 19.4595 12.3274 19.4555 12.3595 19.4555C12.3917 19.4555 12.4198 19.4555 12.4519 19.4595H12.476C12.5002 19.4595 12.5243 19.4635 12.5484 19.4675C12.5564 19.4675 12.5604 19.4675 12.5685 19.4715C12.5966 19.4756 12.6287 19.4796 12.6568 19.4876C12.6649 19.4876 12.6689 19.4916 12.6769 19.4916C12.701 19.4956 12.7252 19.5037 12.7452 19.5077C12.7533 19.5117 12.7613 19.5117 12.7693 19.5157C12.7975 19.5238 12.8256 19.5318 12.8537 19.5439C12.8818 19.5519 12.906 19.564 12.9341 19.576L12.9582 19.5881C12.9783 19.5961 13.0024 19.6081 13.0225 19.6202C13.0265 19.6242 13.0345 19.6242 13.0385 19.6282C13.0627 19.6403 13.0908 19.6564 13.1149 19.6724C13.1189 19.6765 13.1269 19.6805 13.131 19.6845C13.151 19.6965 13.1711 19.7086 13.1872 19.7247C13.1952 19.7287 13.1993 19.7327 13.2073 19.7367C13.2314 19.7528 13.2555 19.7729 13.2756 19.789C13.2957 19.805 13.3198 19.8251 13.3399 19.8452L13.356 19.8613L13.4042 19.9095L13.4162 19.9215C13.4363 19.9416 13.4564 19.9657 13.4725 19.9858C13.4765 19.9898 13.4805 19.9979 13.4845 20.0019C13.5006 20.018 13.5127 20.0381 13.5247 20.0581C13.5287 20.0662 13.5327 20.0702 13.5368 20.0782L13.585 20.1506C13.585 20.1506 13.585 20.1546 13.589 20.1546C13.723 20.3794 13.7937 20.6362 13.7939 20.8979C13.7939 21.139 13.7336 21.368 13.6292 21.5689C13.6171 21.593 13.601 21.6171 13.589 21.6412C13.589 21.6412 13.589 21.6452 13.585 21.6452L13.5368 21.7175C13.5327 21.7256 13.5287 21.7296 13.5247 21.7376C13.5127 21.7577 13.4966 21.7738 13.4845 21.7939C13.4805 21.7979 13.4765 21.8059 13.4725 21.8099C13.4524 21.834 13.4363 21.8541 13.4162 21.8742L13.4042 21.8863L13.356 21.9345L13.3399 21.9506C13.3198 21.9706 13.2997 21.9867 13.2756 22.0068C13.2515 22.0269 13.2314 22.043 13.2073 22.059C13.1993 22.0631 13.1952 22.0671 13.1872 22.0711C13.1671 22.0831 13.151 22.0992 13.131 22.1113C13.1269 22.1153 13.1189 22.1193 13.1149 22.1233C13.0908 22.1394 13.0667 22.1515 13.0385 22.1675C13.0345 22.1715 13.0265 22.1715 13.0225 22.1756C13.0024 22.1876 12.9823 22.1956 12.9582 22.2077L12.9341 22.2198C12.906 22.2318 12.8818 22.2439 12.8537 22.2519C12.8256 22.264 12.7975 22.272 12.7693 22.28C12.7613 22.284 12.7533 22.284 12.7452 22.2881C12.7211 22.2961 12.701 22.3001 12.6769 22.3041C12.6689 22.3041 12.6649 22.3081 12.6568 22.3081C12.6287 22.3162 12.5966 22.3202 12.5685 22.3242C12.5604 22.3242 12.5564 22.3242 12.5484 22.3282C12.5243 22.3323 12.5002 22.3323 12.476 22.3363H12.4519C12.4198 22.3363 12.3917 22.3403 12.3595 22.3403C12.3274 22.3403 12.2993 22.3403 12.2671 22.3363H12.243C12.2189 22.3363 12.1948 22.3323 12.1707 22.3282C12.1627 22.3282 12.1586 22.3282 12.1506 22.3242C12.1225 22.3202 12.0903 22.3162 12.0622 22.3081C12.0542 22.3081 12.0502 22.3041 12.0421 22.3041C12.018 22.3001 11.9939 22.2921 11.9738 22.2881C11.9658 22.284 11.9577 22.284 11.9497 22.28C11.9216 22.272 11.8935 22.264 11.8653 22.2519C11.8372 22.2439 11.8131 22.2318 11.785 22.2198L11.7609 22.2077C11.7408 22.1997 11.7167 22.1876 11.6966 22.1756C11.6926 22.1715 11.6845 22.1715 11.6805 22.1675C11.6564 22.1555 11.6283 22.1394 11.6042 22.1233C11.6002 22.1193 11.5921 22.1153 11.5881 22.1113C11.568 22.0992 11.5479 22.0872 11.5318 22.0711C11.5238 22.0671 11.5198 22.0631 11.5118 22.059C11.4877 22.043 11.4635 22.0229 11.4435 22.0068C11.4234 21.9907 11.3993 21.9706 11.3792 21.9506L11.3631 21.9345L11.3149 21.8863L11.3028 21.8742C11.2827 21.8541 11.2627 21.83 11.2466 21.8099C11.2426 21.8059 11.2385 21.7979 11.2345 21.7939C11.2185 21.7778 11.2064 21.7577 11.1943 21.7376C11.1903 21.7296 11.1863 21.7256 11.1823 21.7175L11.1341 21.6452V21.6412C11.118 21.6171 11.106 21.593 11.0939 21.5689C10.9894 21.368 10.9292 21.139 10.9292 20.8979C10.9292 20.6568 10.9894 20.4278 11.0939 20.2269ZM22.3399 19.0898V27.9693C22.3399 28.1461 22.4845 28.2907 22.6613 28.2907H24.5899C24.7667 28.2907 24.9113 28.1461 24.9113 27.9693V19.0898C24.5055 19.2224 24.0756 19.2907 23.6256 19.2907C23.1756 19.2907 22.7457 19.2184 22.3399 19.0898ZM24.9113 11.1345V8.04074C24.9113 7.86395 24.7667 7.71931 24.5899 7.71931H22.6613C22.4845 7.71931 22.3399 7.86395 22.3399 8.04074V11.1345C22.7457 11.0019 23.1756 10.9336 23.6256 10.9336C24.0756 10.9336 24.5055 11.0059 24.9113 11.1345ZM22.3399 19.0898C22.7457 19.2224 23.1756 19.2907 23.6256 19.2907C24.0756 19.2907 24.5055 19.2184 24.9113 19.0898C26.5908 18.5474 27.8042 16.9724 27.8042 15.1122C27.8042 13.2519 26.5908 11.6769 24.9113 11.1345C24.5055 11.0019 24.0756 10.9336 23.6256 10.9336C23.1756 10.9336 22.7457 11.0059 22.3399 11.1345C20.6604 11.6769 19.447 13.2519 19.447 15.1122C19.447 16.9724 20.6604 18.5474 22.3399 19.0898ZM22.3439 14.4412C22.356 14.4171 22.372 14.393 22.3841 14.3689V14.3648L22.4323 14.2925C22.4363 14.2845 22.4403 14.2805 22.4443 14.2724C22.4564 14.2523 22.4725 14.2363 22.4845 14.2162C22.4885 14.2122 22.4926 14.2041 22.4966 14.2001C22.5167 14.176 22.5327 14.1559 22.5528 14.1358L22.5649 14.1238L22.6131 14.0756L22.6292 14.0595C22.6493 14.0394 22.6693 14.0233 22.6935 14.0032C22.7176 13.9831 22.7377 13.9671 22.7618 13.951C22.7698 13.947 22.7738 13.943 22.7818 13.939C22.8019 13.9269 22.818 13.9108 22.8381 13.8988C22.8421 13.8948 22.8502 13.8907 22.8542 13.8867C22.8783 13.8706 22.9024 13.8586 22.9305 13.8425C22.9345 13.8385 22.9426 13.8385 22.9466 13.8345C22.9667 13.8224 22.9868 13.8144 23.0109 13.8023L23.035 13.7903C23.0631 13.7782 23.0872 13.7662 23.1153 13.7581C23.1435 13.7461 23.1716 13.7381 23.1997 13.73C23.2077 13.726 23.2158 13.726 23.2238 13.722C23.2479 13.714 23.268 13.7099 23.2921 13.7059C23.3002 13.7059 23.3042 13.7019 23.3122 13.7019C23.3403 13.6939 23.3725 13.6898 23.4006 13.6858C23.4086 13.6858 23.4127 13.6858 23.4207 13.6818C23.4448 13.6778 23.4689 13.6778 23.493 13.6738H23.5171C23.5493 13.6738 23.5774 13.6698 23.6095 13.6698C23.6417 13.6698 23.6698 13.6698 23.7019 13.6738H23.726C23.7502 13.6738 23.7743 13.6778 23.7984 13.6818C23.8064 13.6818 23.8104 13.6818 23.8185 13.6858C23.8466 13.6898 23.8787 13.6939 23.9068 13.7019C23.9149 13.7019 23.9189 13.7059 23.9269 13.7059C23.951 13.7099 23.9752 13.718 23.9952 13.722C24.0033 13.726 24.0113 13.726 24.0193 13.73C24.0475 13.7381 24.0756 13.7461 24.1037 13.7581C24.1318 13.7662 24.156 13.7782 24.1841 13.7903L24.2082 13.8023C24.2283 13.8104 24.2524 13.8224 24.2725 13.8345C24.2765 13.8385 24.2845 13.8385 24.2885 13.8425C24.3127 13.8546 24.3408 13.8706 24.3649 13.8867C24.3689 13.8907 24.3769 13.8948 24.381 13.8988C24.401 13.9108 24.4211 13.9229 24.4372 13.939C24.4452 13.943 24.4493 13.947 24.4573 13.951C24.4814 13.9671 24.5055 13.9872 24.5256 14.0032C24.5457 14.0193 24.5698 14.0394 24.5899 14.0595L24.606 14.0756L24.6542 14.1238L24.6662 14.1358C24.6863 14.1559 24.7064 14.18 24.7225 14.2001C24.7265 14.2041 24.7305 14.2122 24.7345 14.2162C24.7506 14.2323 24.7627 14.2523 24.7747 14.2724C24.7787 14.2805 24.7827 14.2845 24.7868 14.2925L24.835 14.3648V14.3689C24.9689 14.5937 25.0397 14.8505 25.0399 15.1122C25.0399 15.3532 24.9796 15.5823 24.8752 15.7831C24.8631 15.8073 24.847 15.8314 24.835 15.8555V15.8595L24.7868 15.9318C24.7827 15.9398 24.7787 15.9439 24.7747 15.9519C24.7627 15.972 24.7466 15.9881 24.7345 16.0081C24.7305 16.0122 24.7265 16.0202 24.7225 16.0242C24.7024 16.0483 24.6863 16.0684 24.6662 16.0885L24.6542 16.1006L24.606 16.1488L24.5899 16.1648C24.5698 16.1849 24.5497 16.201 24.5256 16.2211C24.5015 16.2412 24.4814 16.2573 24.4573 16.2733C24.4493 16.2773 24.4452 16.2814 24.4372 16.2854C24.4171 16.2974 24.401 16.3135 24.381 16.3256C24.3769 16.3296 24.3689 16.3336 24.3649 16.3376C24.3408 16.3537 24.3167 16.3657 24.2885 16.3818C24.2845 16.3858 24.2765 16.3858 24.2725 16.3898C24.2524 16.4019 24.2323 16.4099 24.2082 16.422L24.1841 16.434C24.156 16.4461 24.1318 16.4581 24.1037 16.4662C24.0756 16.4782 24.0475 16.4863 24.0193 16.4943C24.0113 16.4983 24.0033 16.4983 23.9952 16.5023C23.9711 16.5104 23.951 16.5144 23.9269 16.5184C23.9189 16.5184 23.9149 16.5224 23.9068 16.5224C23.8787 16.5305 23.8466 16.5345 23.8185 16.5385C23.8104 16.5385 23.8064 16.5385 23.7984 16.5425C23.7743 16.5465 23.7502 16.5465 23.726 16.5506H23.7019C23.6698 16.5506 23.6417 16.5546 23.6095 16.5546C23.5774 16.5546 23.5493 16.5546 23.5171 16.5506H23.493C23.4689 16.5506 23.4448 16.5465 23.4207 16.5425C23.4127 16.5425 23.4086 16.5425 23.4006 16.5385C23.3725 16.5345 23.3403 16.5305 23.3122 16.5224C23.3042 16.5224 23.3002 16.5184 23.2921 16.5184C23.268 16.5144 23.2439 16.5064 23.2238 16.5023C23.2158 16.4983 23.2077 16.4983 23.1997 16.4943C23.1716 16.4863 23.1435 16.4782 23.1153 16.4662C23.0872 16.4581 23.0631 16.4461 23.035 16.434L23.0109 16.422C22.9908 16.414 22.9667 16.4019 22.9466 16.3898C22.9426 16.3858 22.9345 16.3858 22.9305 16.3818C22.9064 16.3698 22.8783 16.3537 22.8542 16.3376C22.8502 16.3336 22.8421 16.3296 22.8381 16.3256C22.818 16.3135 22.7979 16.3015 22.7818 16.2854C22.7738 16.2814 22.7698 16.2773 22.7618 16.2733C22.7377 16.2573 22.7135 16.2372 22.6935 16.2211C22.6734 16.205 22.6493 16.1849 22.6292 16.1648L22.6131 16.1488L22.5649 16.1006L22.5528 16.0885C22.5327 16.0684 22.5127 16.0443 22.4966 16.0242C22.4926 16.0202 22.4885 16.0122 22.4845 16.0081C22.4685 15.9921 22.4564 15.972 22.4443 15.9519C22.4403 15.9439 22.4363 15.9398 22.4323 15.9318L22.3841 15.8595V15.8555C22.368 15.8314 22.356 15.8073 22.3439 15.7831C22.2394 15.5823 22.1792 15.3532 22.1792 15.1122C22.1792 14.8711 22.2394 14.6421 22.3439 14.4412Z" fill="black" fill-opacity="0.85"/>
</svg>
