<svg width="36" height="36" viewBox="0 0 36 36" fill="none" xmlns="http://www.w3.org/2000/svg">
<g clip-path="url(#clip0_806_8585)">
<path d="M34.5857 12.9265C33.6822 10.7878 32.3722 8.84474 30.7286 7.20502C29.0889 5.56135 27.1458 4.25143 25.0071 3.34788C22.7853 2.4077 20.4308 1.93359 18 1.93359C15.5692 1.93359 13.2147 2.4077 10.9929 3.34788C8.85419 4.25143 6.91114 5.56135 5.27143 7.20502C3.62776 8.84474 2.31784 10.7878 1.41429 12.9265C0.474107 15.1483 0 17.5028 0 19.9336C0 25.2653 2.34241 30.2876 6.42455 33.7189L6.49286 33.7751C6.72589 33.968 7.0192 34.0765 7.32054 34.0765H28.6835C28.9848 34.0765 29.2781 33.968 29.5112 33.7751L29.5795 33.7189C33.6576 30.2876 36 25.2653 36 19.9336C36 17.5028 35.5219 15.1483 34.5857 12.9265ZM28.0205 31.0229H7.97946C6.42695 29.623 5.18612 27.9124 4.3375 26.002C3.48889 24.0915 3.05145 22.024 3.05357 19.9336C3.05357 15.9398 4.60848 12.1872 7.43304 9.36663C10.2576 6.54208 14.0103 4.98717 18 4.98717C21.9937 4.98717 25.7464 6.54208 28.567 9.36663C31.3915 12.1912 32.9464 15.9439 32.9464 19.9336C32.9464 24.1765 31.1585 28.1903 28.0205 31.0229ZM22.4799 14.3689C22.4195 14.309 22.3379 14.2755 22.2529 14.2755C22.1679 14.2755 22.0863 14.309 22.0259 14.3689L18.6308 17.764C17.8795 17.5631 17.0478 17.7559 16.4571 18.3465C16.2479 18.5553 16.082 18.8033 15.9687 19.0764C15.8555 19.3494 15.7972 19.642 15.7972 19.9376C15.7972 20.2332 15.8555 20.5258 15.9687 20.7989C16.082 21.0719 16.2479 21.3199 16.4571 21.5287C16.6659 21.7379 16.9139 21.9038 17.187 22.0171C17.46 22.1303 17.7526 22.1886 18.0482 22.1886C18.3438 22.1886 18.6364 22.1303 18.9095 22.0171C19.1825 21.9038 19.4305 21.7379 19.6393 21.5287C19.9191 21.2497 20.1203 20.9018 20.2226 20.5201C20.3249 20.1385 20.3247 19.7366 20.2219 19.355L23.617 15.9599C23.7415 15.8354 23.7415 15.6305 23.617 15.5059L22.4799 14.3689ZM17.1161 10.2907H18.8839C19.0607 10.2907 19.2054 10.1461 19.2054 9.96931V6.75502C19.2054 6.57824 19.0607 6.43359 18.8839 6.43359H17.1161C16.9393 6.43359 16.7946 6.57824 16.7946 6.75502V9.96931C16.7946 10.1461 16.9393 10.2907 17.1161 10.2907ZM27.5625 19.0497V20.8175C27.5625 20.9943 27.7071 21.139 27.8839 21.139H31.0982C31.275 21.139 31.4196 20.9943 31.4196 20.8175V19.0497C31.4196 18.8729 31.275 18.7282 31.0982 18.7282H27.8839C27.7071 18.7282 27.5625 18.8729 27.5625 19.0497ZM28.0728 11.1265L26.8232 9.8769C26.7628 9.81708 26.6812 9.78352 26.5962 9.78352C26.5112 9.78352 26.4296 9.81708 26.3692 9.8769L24.0951 12.151C24.0353 12.2114 24.0017 12.293 24.0017 12.378C24.0017 12.463 24.0353 12.5446 24.0951 12.605L25.3446 13.8546C25.4692 13.9791 25.6741 13.9791 25.7987 13.8546L28.0728 11.5805C28.1973 11.4559 28.1973 11.251 28.0728 11.1265ZM9.64688 9.8769C9.58646 9.81708 9.50488 9.78352 9.41987 9.78352C9.33485 9.78352 9.25327 9.81708 9.19286 9.8769L7.9433 11.1265C7.88349 11.1869 7.84993 11.2684 7.84993 11.3535C7.84993 11.4385 7.88349 11.5201 7.9433 11.5805L10.2174 13.8546C10.342 13.9791 10.5469 13.9791 10.6714 13.8546L11.921 12.605C12.0455 12.4805 12.0455 12.2756 11.921 12.151L9.64688 9.8769ZM7.95536 18.7282H4.74107C4.56429 18.7282 4.41964 18.8729 4.41964 19.0497V20.8175C4.41964 20.9943 4.56429 21.139 4.74107 21.139H7.95536C8.13214 21.139 8.27679 20.9943 8.27679 20.8175V19.0497C8.27679 18.8729 8.13214 18.7282 7.95536 18.7282Z" fill="black" fill-opacity="0.85"/>
</g>
<defs>
<clipPath id="clip0_806_8585">
<rect width="36" height="36" fill="white"/>
</clipPath>
</defs>
</svg>
