<svg width="36" height="36" viewBox="0 0 36 36" fill="none" xmlns="http://www.w3.org/2000/svg">
<g clip-path="url(#clip0_806_8589)">
<path d="M30.8562 0H5.14192C4.43075 0 3.8562 0.574554 3.8562 1.28571V34.7143C3.8562 35.4254 4.43075 36 5.14192 36H30.8562C31.5674 36 32.1419 35.4254 32.1419 34.7143V1.28571C32.1419 0.574554 31.5674 0 30.8562 0ZM6.74906 2.89286H29.2491V11.25H6.74906V2.89286ZM29.2491 22.1786H6.74906V13.8214H29.2491V22.1786ZM29.2491 33.1071H6.74906V24.75H29.2491V33.1071ZM9.64192 7.07143C9.64192 7.49767 9.81124 7.90645 10.1126 8.20785C10.414 8.50925 10.8228 8.67857 11.2491 8.67857C11.6753 8.67857 12.0841 8.50925 12.3855 8.20785C12.6869 7.90645 12.8562 7.49767 12.8562 7.07143C12.8562 6.64519 12.6869 6.2364 12.3855 5.93501C12.0841 5.63361 11.6753 5.46429 11.2491 5.46429C10.8228 5.46429 10.414 5.63361 10.1126 5.93501C9.81124 6.2364 9.64192 6.64519 9.64192 7.07143ZM9.64192 18C9.64192 18.4262 9.81124 18.835 10.1126 19.1364C10.414 19.4378 10.8228 19.6071 11.2491 19.6071C11.6753 19.6071 12.0841 19.4378 12.3855 19.1364C12.6869 18.835 12.8562 18.4262 12.8562 18C12.8562 17.5738 12.6869 17.165 12.3855 16.8636C12.0841 16.5622 11.6753 16.3929 11.2491 16.3929C10.8228 16.3929 10.414 16.5622 10.1126 16.8636C9.81124 17.165 9.64192 17.5738 9.64192 18ZM9.64192 28.9286C9.64192 29.3548 9.81124 29.7636 10.1126 30.065C10.414 30.3664 10.8228 30.5357 11.2491 30.5357C11.6753 30.5357 12.0841 30.3664 12.3855 30.065C12.6869 29.7636 12.8562 29.3548 12.8562 28.9286C12.8562 28.5023 12.6869 28.0935 12.3855 27.7921C12.0841 27.4908 11.6753 27.3214 11.2491 27.3214C10.8228 27.3214 10.414 27.4908 10.1126 27.7921C9.81124 28.0935 9.64192 28.5023 9.64192 28.9286Z" fill="black" fill-opacity="0.85"/>
</g>
<defs>
<clipPath id="clip0_806_8589">
<rect width="36" height="36" fill="white"/>
</clipPath>
</defs>
</svg>
