<svg width="120" height="73" viewBox="0 0 120 73" fill="none" xmlns="http://www.w3.org/2000/svg">
<g clip-path="url(#clip0_37517_88026)">
<path d="M74.3041 26.8412H71.4796C71.2867 26.8412 71.1059 26.9255 70.9854 27.0742C70.7041 27.4157 70.4028 27.7452 70.0854 28.0586C68.7872 29.3581 67.2495 30.3937 65.5573 31.1081C63.8041 31.8486 61.9198 32.2285 60.0166 32.2251C58.0921 32.2251 56.2278 31.8474 54.476 31.1081C52.7838 30.3937 51.2461 29.3581 49.9479 28.0586C48.6474 26.7635 47.6104 25.2284 46.8943 23.5385C46.151 21.7867 45.7774 19.9264 45.7774 18.0019C45.7774 16.0773 46.155 14.2171 46.8943 12.4653C47.6095 10.7738 48.6381 9.25099 49.9479 7.94519C51.2577 6.63938 52.7805 5.61081 54.476 4.89563C56.2278 4.15635 58.0921 3.77867 60.0166 3.77867C61.9412 3.77867 63.8055 4.15233 65.5573 4.89563C67.2528 5.61081 68.7756 6.63938 70.0854 7.94519C70.4028 8.2626 70.7001 8.59206 70.9854 8.92956C71.1059 9.07822 71.2907 9.1626 71.4796 9.1626H74.3041C74.5573 9.1626 74.714 8.88135 74.5733 8.6684C71.4916 3.87912 66.0997 0.709026 59.9724 0.725097C50.3457 0.749205 42.6274 8.56394 42.7238 18.1787C42.8202 27.6407 50.5265 35.2787 60.0166 35.2787C66.1278 35.2787 71.4957 32.1126 74.5733 27.3354C74.7099 27.1224 74.5573 26.8412 74.3041 26.8412ZM77.876 17.7488L72.1747 13.2488C71.9617 13.08 71.6524 13.2327 71.6524 13.5019V16.5555H59.0363C58.8595 16.5555 58.7149 16.7001 58.7149 16.8769V19.1269C58.7149 19.3037 58.8595 19.4483 59.0363 19.4483H71.6524V22.5019C71.6524 22.7711 71.9657 22.9238 72.1747 22.755L77.876 18.255C77.9144 18.2249 77.9455 18.1865 77.9669 18.1427C77.9882 18.0988 77.9993 18.0507 77.9993 18.0019C77.9993 17.9531 77.9882 17.905 77.9669 17.8611C77.9455 17.8172 77.9144 17.7788 77.876 17.7488Z" fill="black" fill-opacity="0.85"/>
</g>
<path d="M41.677 55.054V64H40.515V55.054H41.677ZM41.138 64V63.013H45.856V64H41.138ZM49.5101 64.175C48.5301 64.175 47.7858 63.9113 47.2771 63.384C46.7731 62.852 46.5211 62.089 46.5211 61.095V60.052C46.5211 59.0627 46.7755 58.3043 47.2841 57.777C47.7928 57.2497 48.5348 56.986 49.5101 56.986C50.4901 56.986 51.2321 57.2497 51.7361 57.777C52.2448 58.3043 52.4991 59.0627 52.4991 60.052V61.095C52.4991 62.089 52.2448 62.852 51.7361 63.384C51.2321 63.9113 50.4901 64.175 49.5101 64.175ZM49.5101 63.251C50.1168 63.251 50.5765 63.0713 50.8891 62.712C51.2065 62.3527 51.3651 61.8347 51.3651 61.158V59.989C51.3651 59.317 51.2065 58.8037 50.8891 58.449C50.5765 58.0897 50.1168 57.91 49.5101 57.91C48.9081 57.91 48.4485 58.0897 48.1311 58.449C47.8138 58.8037 47.6551 59.317 47.6551 59.989V61.158C47.6551 61.8347 47.8138 62.3527 48.1311 62.712C48.4485 63.0713 48.9081 63.251 49.5101 63.251ZM56.7139 61.956C55.7852 61.956 55.0712 61.753 54.5719 61.347C54.0772 60.941 53.8299 60.36 53.8299 59.604V59.429C53.8299 58.9577 53.9255 58.547 54.1169 58.197C54.3129 57.847 54.6232 57.574 55.0479 57.378C55.4725 57.1773 56.0279 57.0677 56.7139 57.049L60.1999 56.937V57.833L58.1419 57.763L58.1349 57.812C58.4569 57.8773 58.7205 57.9893 58.9259 58.148C59.1312 58.3067 59.2829 58.505 59.3809 58.743C59.4835 58.981 59.5349 59.2587 59.5349 59.576V59.73C59.5349 60.4533 59.2969 61.0063 58.8209 61.389C58.3449 61.767 57.6425 61.956 56.7139 61.956ZM56.6649 65.722H56.8259C57.2459 65.722 57.6052 65.6893 57.9039 65.624C58.2072 65.5633 58.4405 65.4653 58.6039 65.33C58.7672 65.1947 58.8489 65.015 58.8489 64.791V64.763C58.8489 64.5017 58.7532 64.301 58.5619 64.161C58.3752 64.0257 58.0532 63.937 57.5959 63.895L55.6639 63.72L55.9859 63.706C55.7245 63.7433 55.4935 63.804 55.2929 63.888C55.0969 63.972 54.9429 64.0817 54.8309 64.217C54.7189 64.357 54.6629 64.5297 54.6629 64.735V64.749C54.6629 64.987 54.7445 65.1783 54.9079 65.323C55.0712 65.4677 55.3022 65.5703 55.6009 65.631C55.8995 65.6917 56.2542 65.722 56.6649 65.722ZM56.8049 66.625H56.6019C55.9859 66.625 55.4539 66.5713 55.0059 66.464C54.5625 66.3613 54.2172 66.191 53.9699 65.953C53.7272 65.7197 53.6059 65.4047 53.6059 65.008V64.98C53.6059 64.7 53.6712 64.4667 53.8019 64.28C53.9372 64.0933 54.1169 63.9463 54.3409 63.839C54.5695 63.7317 54.8239 63.6593 55.1039 63.622L55.0969 63.58C54.7142 63.5147 54.4319 63.4027 54.2499 63.244C54.0679 63.0807 53.9769 62.8707 53.9769 62.614V62.607C53.9769 62.4297 54.0165 62.278 54.0959 62.152C54.1799 62.026 54.3035 61.9257 54.4669 61.851C54.6349 61.7763 54.8472 61.7297 55.1039 61.711V61.571L56.4059 61.9L55.8739 61.886C55.5565 61.8907 55.3372 61.9303 55.2159 62.005C55.0945 62.075 55.0339 62.1823 55.0339 62.327V62.334C55.0339 62.488 55.1202 62.6047 55.2929 62.684C55.4655 62.7633 55.7595 62.8263 56.1749 62.873L57.8339 63.041C58.5572 63.1157 59.0845 63.2907 59.4159 63.566C59.7472 63.8367 59.9129 64.238 59.9129 64.77V64.805C59.9129 65.2297 59.7869 65.5773 59.5349 65.848C59.2829 66.1187 58.9259 66.3147 58.4639 66.436C58.0019 66.562 57.4489 66.625 56.8049 66.625ZM56.6999 61.116C57.0919 61.116 57.4162 61.06 57.6729 60.948C57.9342 60.8313 58.1302 60.6587 58.2609 60.43C58.3962 60.1967 58.4639 59.912 58.4639 59.576V59.408C58.4639 59.0813 58.3985 58.8037 58.2679 58.575C58.1419 58.3463 57.9505 58.1737 57.6939 58.057C57.4372 57.9357 57.1152 57.875 56.7279 57.875H56.6859C56.2659 57.875 55.9229 57.9403 55.6569 58.071C55.3955 58.197 55.2042 58.3767 55.0829 58.61C54.9662 58.8387 54.9079 59.107 54.9079 59.415V59.576C54.9079 59.912 54.9732 60.1943 55.1039 60.423C55.2392 60.6517 55.4399 60.8243 55.7059 60.941C55.9719 61.0577 56.3032 61.116 56.6999 61.116ZM63.8793 64.175C62.8993 64.175 62.1549 63.9113 61.6463 63.384C61.1423 62.852 60.8903 62.089 60.8903 61.095V60.052C60.8903 59.0627 61.1446 58.3043 61.6533 57.777C62.1619 57.2497 62.9039 56.986 63.8793 56.986C64.8593 56.986 65.6013 57.2497 66.1053 57.777C66.6139 58.3043 66.8683 59.0627 66.8683 60.052V61.095C66.8683 62.089 66.6139 62.852 66.1053 63.384C65.6013 63.9113 64.8593 64.175 63.8793 64.175ZM63.8793 63.251C64.4859 63.251 64.9456 63.0713 65.2583 62.712C65.5756 62.3527 65.7343 61.8347 65.7343 61.158V59.989C65.7343 59.317 65.5756 58.8037 65.2583 58.449C64.9456 58.0897 64.4859 57.91 63.8793 57.91C63.2773 57.91 62.8176 58.0897 62.5003 58.449C62.1829 58.8037 62.0243 59.317 62.0243 59.989V61.158C62.0243 61.8347 62.1829 62.3527 62.5003 62.712C62.8176 63.0713 63.2773 63.251 63.8793 63.251ZM68.3527 57.168H69.4797V61.417C69.4797 61.7763 69.5287 62.0913 69.6267 62.362C69.7294 62.628 69.895 62.8357 70.1237 62.985C70.3524 63.1297 70.6604 63.202 71.0477 63.202C71.4117 63.202 71.7244 63.1367 71.9857 63.006C72.247 62.8707 72.4594 62.6863 72.6227 62.453C72.7907 62.2197 72.905 61.956 72.9657 61.662L73.1687 62.467H72.9237C72.8537 62.775 72.7254 63.0573 72.5387 63.314C72.352 63.566 72.1 63.769 71.7827 63.923C71.47 64.0723 71.0827 64.147 70.6207 64.147C70.084 64.147 69.6477 64.0467 69.3117 63.846C68.9804 63.6407 68.7377 63.3443 68.5837 62.957C68.4297 62.565 68.3527 62.0937 68.3527 61.543V57.168ZM72.9167 57.168H74.0507V64H72.9167L72.9657 62.362L72.9167 62.292V57.168ZM78.4139 64.14C77.8865 64.14 77.4619 64.0607 77.1399 63.902C76.8179 63.7433 76.5845 63.503 76.4399 63.181C76.2952 62.859 76.2229 62.4577 76.2229 61.977V57.665H77.3429V61.844C77.3429 62.292 77.4455 62.6233 77.6509 62.838C77.8562 63.048 78.2015 63.153 78.6869 63.153C78.9622 63.153 79.2259 63.1227 79.4779 63.062C79.7345 63.0013 79.9749 62.915 80.1989 62.803L80.0939 63.776C79.8745 63.888 79.6179 63.9767 79.3239 64.042C79.0299 64.1073 78.7265 64.14 78.4139 64.14ZM80.0239 58.176H75.1029V57.266H80.1289L80.0239 58.176ZM77.3149 57.378H76.2299L76.2229 55.46L77.3639 55.313L77.3149 57.378Z" fill="black" fill-opacity="0.85"/>
<defs>
<clipPath id="clip0_37517_88026">
<rect width="36" height="36" fill="white" transform="translate(42)"/>
</clipPath>
</defs>
</svg>
